<svg xmlns="http://www.w3.org/2000/svg" viewBox="0 0 400 300">
<defs><radialGradient id="plateD" cx="50%" cy="45%" r="60%"><stop offset="0%" stop-color="#fffdf8"/><stop offset="70%" stop-color="#f3e9d8"/><stop offset="100%" stop-color="#d8c6a3"/></radialGradient>
<linearGradient id="leaf" x1="0" y1="0" x2="0" y2="1"><stop offset="0%" stop-color="#6fa84a"/><stop offset="100%" stop-color="#3f7a2e"/></linearGradient></defs>
<rect width="400" height="300" fill="#f8f4ef"/>
<ellipse cx="200" cy="175" rx="170" ry="100" fill="url(#plateD)" stroke="#c9a96b" stroke-width="3"/>
<ellipse cx="200" cy="175" rx="140" ry="78" fill="#fbf6ec" stroke="#e3d3ac" stroke-width="2"/>
<g>
<rect x="110" y="150" width="26" height="60" rx="13" fill="url(#leaf)" transform="rotate(-6 123 180)"/>
<rect x="150" y="145" width="26" height="60" rx="13" fill="url(#leaf)" transform="rotate(4 163 175)"/>
<rect x="190" y="150" width="26" height="60" rx="13" fill="url(#leaf)" transform="rotate(-3 203 180)"/>
<rect x="230" y="146" width="26" height="60" rx="13" fill="url(#leaf)" transform="rotate(6 243 176)"/>
<rect x="270" y="150" width="26" height="60" rx="13" fill="url(#leaf)" transform="rotate(-5 283 180)"/>
</g>
<circle cx="230" cy="222" r="14" fill="#f3f0e0"/>
<text x="200" y="285" text-anchor="middle" font-family="Tahoma, sans-serif" font-size="14" fill="#8a6d3b">ليالي الموصل</text>
</svg>
